<svg xmlns="http://www.w3.org/2000/svg" width="75" height="75"><style><![CDATA[.B{stroke-width:2.835}.C{stroke-linejoin:bevel}]]></style><g fill="none" stroke="#9a0000" class="B"><path d="M22.5 45.43l-10 4 25 10 25-10-10-4" class="C"/><path d="M12.5 49.43l25 10 25-10"/></g><g fill="none" stroke="#b30000" class="B"><path d="M22.5 37.43l-10 4 25 10 25-10-10-4" class="C"/><path d="M12.5 41.43l25 10 25-10"/></g><g fill="none" stroke="#c00" class="B"><path d="M22.5 29.43l-10 4 25 10 25-10-10-4" class="C"/><path d="M12.5 33.43l25 10 25-10"/></g><g fill="none" stroke="#e50000" class="B"><path d="M12.5 25.43l25-10 25 10-25 10z" class="C"/><path d="M12.5 25.43l25 10 25-10m0 0l-25-10-25 10"/></g></svg>