<?xml version="1.0" standalone="no"?>
<!DOCTYPE svg PUBLIC "-//W3C//DTD SVG 20010904//EN"
 "http://www.w3.org/TR/2001/REC-SVG-20010904/DTD/svg10.dtd">
<svg version="1.0" xmlns="http://www.w3.org/2000/svg"
 width="4096.000000pt" height="4096.000000pt" viewBox="0 0 4096.000000 4096.000000"
 preserveAspectRatio="xMidYMid meet">
<metadata>
Created by potrace 1.14, written by Peter Selinger 2001-2017
</metadata>
<g transform="translate(0.000000,4096.000000) scale(0.100000,-0.100000)"
fill="#000000" stroke="none">
<path d="M20283 40536 c-57 -29 -103 -51 -103 -49 0 2 -18 -8 -40 -22 -22 -14
-40 -22 -40 -19 0 4 -6 1 -14 -5 -12 -10 -133 -73 -146 -76 -3 -1 -43 -21 -90
-45 -81 -42 -139 -70 -150 -72 -3 -1 -22 -12 -42 -25 -21 -13 -38 -22 -38 -20
0 2 -28 -10 -62 -28 -35 -18 -200 -101 -368 -184 -168 -84 -312 -156 -320
-160 -59 -33 -2480 -1241 -2488 -1241 -6 0 -12 -3 -14 -7 -2 -5 -169 -90 -373
-191 -203 -101 -377 -187 -385 -192 -8 -5 -49 -25 -90 -45 -41 -20 -82 -40
-90 -45 -37 -22 -381 -190 -386 -189 -4 0 -10 -3 -13 -8 -6 -9 -215 -113 -228
-114 -5 0 -15 -6 -23 -14 -8 -7 -26 -16 -40 -20 -14 -4 -27 -11 -30 -14 -7 -9
-853 -429 -864 -429 -5 0 -12 -4 -15 -9 -8 -10 -2378 -1195 -2387 -1193 -4 1
-10 -2 -13 -7 -6 -9 -1081 -547 -1093 -548 -3 0 -9 -3 -13 -6 -12 -12 -900
-453 -908 -451 -4 1 -7 -2 -7 -7 0 -9 -25 -21 -43 -21 -4 0 -13 -4 -20 -10 -6
-6 -1550 -780 -3431 -1720 -1880 -940 -3425 -1715 -3434 -1722 -8 -7 -17 -11
-19 -9 -3 2 -41 -15 -86 -38 l-82 -42 1 -11080 c0 -6948 4 -11083 10 -11088
12 -13 3670 -1841 3682 -1841 6 0 12 -3 14 -7 1 -5 143 -77 313 -161 171 -84
318 -158 329 -163 27 -15 9638 -4820 10386 -5193 355 -176 647 -324 648 -328
2 -5 8 -8 13 -8 5 0 617 -304 1359 -675 l1350 -675 2040 1020 c1122 561 2044
1020 2049 1020 5 0 11 3 13 7 4 9 773 393 787 393 5 0 11 3 13 7 2 5 37 24 78
43 41 19 77 37 80 40 6 6 5382 2694 5390 2695 3 0 16 7 30 15 36 20 1404 704
1410 705 3 0 16 7 30 15 54 31 275 138 281 137 3 -1 13 4 22 11 8 7 188 99
399 204 210 105 391 197 401 206 9 8 17 12 17 8 0 -3 56 23 125 58 69 35 125
61 125 58 0 -4 4 -2 8 3 4 6 70 41 147 79 77 38 142 73 143 78 2 4 9 8 16 8 8
0 441 214 964 476 523 261 954 475 958 474 4 -1 10 2 13 7 3 5 303 157 666
337 363 181 663 333 666 339 3 5 9 8 13 7 10 -2 300 142 307 152 3 5 9 9 13 8
10 -2 520 252 527 263 3 5 8 7 10 6 2 -2 84 36 182 85 l177 88 1 116 c1 65 1
121 0 125 -2 14 -4 439 -2 522 0 8 0 44 0 80 0 36 0 72 0 80 0 8 0 116 0 240
0 124 0 232 0 240 0 8 0 116 0 240 0 124 0 232 0 240 0 8 0 116 0 240 0 124 0
232 0 240 0 8 0 116 0 240 0 124 0 232 0 240 0 8 0 116 0 240 0 124 0 232 0
240 0 8 0 44 0 80 0 36 0 72 0 80 0 8 0 116 0 240 0 124 0 232 0 240 0 8 0
116 0 240 0 124 0 232 0 240 0 8 0 116 0 240 0 124 0 232 0 240 0 8 0 116 0
240 0 124 0 232 0 240 0 8 0 116 0 240 0 124 0 232 0 240 0 8 0 44 0 80 0 36
0 72 0 80 0 8 0 116 0 240 0 124 0 232 0 240 0 8 0 116 0 240 0 124 0 232 0
240 0 8 0 116 0 240 0 124 0 232 0 240 0 8 0 116 0 240 0 124 0 232 0 240 0 8
0 116 0 240 0 124 0 232 0 240 0 8 0 44 0 80 0 36 0 72 0 80 0 8 0 116 0 240
0 124 0 232 0 240 0 8 0 116 0 240 0 124 0 232 0 240 0 8 0 116 0 240 0 124 0
232 0 240 0 8 0 116 0 240 0 124 0 232 0 240 0 8 0 116 0 240 0 124 0 232 0
240 0 8 0 44 0 80 0 36 0 72 0 80 0 8 0 116 0 240 0 124 0 232 0 240 0 8 0
116 0 240 0 124 0 232 0 240 0 8 0 116 0 240 0 124 0 232 0 240 0 8 0 116 0
240 0 124 0 232 0 240 0 8 0 116 0 240 0 124 0 232 0 240 0 8 0 44 0 80 0 36
0 72 0 80 0 8 0 116 0 240 0 124 0 232 0 240 0 8 0 116 0 240 0 124 0 232 0
240 0 8 0 116 0 240 0 124 0 232 0 240 0 8 0 116 0 240 0 124 0 232 0 240 0 8
0 116 0 240 0 124 0 232 0 240 0 8 0 44 0 80 0 36 0 72 0 80 0 8 0 116 0 240
0 124 0 232 0 240 0 8 0 116 0 240 0 124 0 232 0 240 0 8 0 116 0 240 0 124 0
232 0 240 0 8 0 116 0 240 0 124 0 232 0 240 0 8 0 116 0 240 0 124 0 232 0
240 0 8 0 44 0 80 0 36 0 72 0 80 0 8 0 116 0 240 0 124 0 232 0 240 0 8 0
116 0 240 0 124 0 232 0 240 0 8 0 116 0 240 0 124 0 232 0 240 0 8 0 116 0
240 0 124 0 232 0 240 0 8 0 116 0 240 0 124 0 232 0 240 0 8 0 44 0 80 0 36
0 72 0 80 0 17 0 455 0 483 1 81 0 286 -2 287 -11 7 -9823 4910 -9827 4910 -3
1 -25 12 -50 25 -122 64 -740 371 -742 368 -2 -2 -17 7 -35 20 -17 12 -38 22
-46 22 -9 0 -17 3 -19 8 -4 9 -211 112 -226 112 -5 0 -12 3 -14 8 -4 9 -771
392 -786 392 -6 0 -12 3 -14 8 -4 9 -1891 952 -1906 952 -6 0 -12 3 -14 8 -4
9 -611 312 -626 312 -6 0 -12 3 -14 8 -3 6 -895 455 -908 457 -3 0 -10 3 -16
7 -31 20 -412 208 -422 208 -5 0 -12 3 -14 8 -4 8 -1894 952 -1907 952 -5 0
-11 3 -13 8 -3 8 -494 252 -506 252 -4 -1 -53 -25 -109 -54z"/>
</g>
</svg>
