<?xml version="1.0" standalone="no"?>
<!DOCTYPE svg PUBLIC "-//W3C//DTD SVG 20010904//EN"
 "http://www.w3.org/TR/2001/REC-SVG-20010904/DTD/svg10.dtd">
<svg version="1.0" xmlns="http://www.w3.org/2000/svg"
 width="300.000000pt" height="300.000000pt" viewBox="0 0 300.000000 300.000000"
 preserveAspectRatio="xMidYMid meet">
<metadata>
Created by potrace 1.14, written by Peter Selinger 2001-2017
</metadata>
<g transform="translate(0.000000,300.000000) scale(0.100000,-0.100000)"
fill="#000000" stroke="none">
<path d="M1285 2798 l-39 -21 84 -42 85 -43 43 21 43 21 -83 43 c-46 23 -85
42 -88 42 -3 0 -23 -9 -45 -21z"/>
<path d="M870 2671 l-34 -19 166 -83 166 -83 42 19 42 19 -164 82 c-89 46
-167 83 -173 83 -5 0 -26 -8 -45 -18z"/>
<path d="M1623 2633 c-18 -9 -33 -19 -33 -22 0 -4 203 -107 450 -231 248 -124
450 -227 450 -230 0 -3 -54 -32 -120 -65 l-120 -59 -83 41 -83 41 -39 -20 -39
-21 82 -41 82 -41 -125 -63 -125 -62 -210 105 -210 105 -42 -21 -42 -22 209
-105 210 -104 -125 -63 -125 -63 -292 146 -292 146 -43 -21 -43 -20 -125 62
-125 63 38 18 c20 10 37 20 37 23 0 4 -110 61 -245 129 l-245 122 -43 -21 -42
-22 43 -20 42 -21 0 -153 0 -153 -40 20 c-21 11 -42 20 -45 20 -3 0 -5 -23 -5
-50 0 -50 1 -51 45 -72 l45 -22 0 -153 0 -153 585 -292 585 -293 0 -52 c0 -51
1 -53 40 -73 l40 -20 0 -150 c0 -83 -2 -150 -5 -150 -2 0 -20 8 -40 17 l-35
17 0 153 0 153 -580 290 c-319 159 -582 290 -585 290 -3 0 -5 -67 -5 -150 l0
-150 40 -20 c39 -20 40 -22 40 -70 l0 -50 -40 20 c-39 20 -40 22 -40 70 0 48
-2 50 -40 70 -21 11 -42 20 -45 20 -3 0 -5 -22 -5 -48 0 -47 1 -48 45 -70 l45
-22 0 -100 c0 -55 -2 -100 -5 -100 -3 0 -24 9 -45 20 l-40 20 0 -52 0 -53 625
-313 c344 -171 627 -312 630 -312 3 0 5 68 5 150 0 83 2 150 5 150 2 0 20 -8
40 -17 l35 -17 0 -203 c0 -112 2 -203 5 -203 3 0 304 150 670 332 l665 333 0
818 0 817 -127 -64 -128 -64 -457 229 c-252 126 -461 229 -465 228 -5 0 -23
-8 -40 -16z m-658 -920 l35 -17 0 -203 c0 -112 -2 -203 -5 -203 -2 0 -20 8
-40 17 l-35 17 0 203 c0 112 2 203 5 203 2 0 20 -8 40 -17z m535 -213 c0 -83
-2 -150 -5 -150 -2 0 -20 8 -40 17 l-35 17 0 153 0 153 40 -20 40 -20 0 -150z
m0 -360 c0 -55 -2 -100 -5 -100 -2 0 -20 8 -40 17 l-35 17 0 103 0 103 40 -20
40 -20 0 -100z m-170 -680 c0 -28 -2 -50 -5 -50 -2 0 -20 8 -40 17 -34 16 -35
19 -35 70 l0 53 40 -20 c39 -20 40 -22 40 -70z"/>
<path d="M542 2506 l-42 -21 125 -63 126 -62 40 21 c23 11 39 22 37 24 -1 1
-57 30 -123 63 l-120 60 -43 -22z"/>
<path d="M1283 2462 l-33 -17 335 -168 335 -167 35 17 c19 9 35 19 35 22 0 8
-647 331 -663 331 -6 -1 -27 -9 -44 -18z"/>
<path d="M955 2298 l-39 -21 208 -104 209 -105 39 18 c21 9 38 20 38 23 0 5
-405 212 -413 211 -1 -1 -20 -10 -42 -22z"/>
<path d="M160 1550 c0 -48 1 -50 40 -70 21 -11 42 -20 45 -20 3 0 5 22 5 50 0
48 -1 50 -40 70 -21 11 -42 20 -45 20 -3 0 -5 -22 -5 -50z"/>
</g>
</svg>
